Ramp_Up_DEG
version=1
nRows=37
nColumns=18
inDegrees=yes
Units are S.I. units (second, meters, Newtons, ...)
Angles are in degrees.

endheader
time	pelvis_tilt	pelvis_list	pelvis_rotation	pelvis_tx	pelvis_ty	pelvis_tz	hip_flexion_r	hip_adduction_r	hip_rotation_r	knee_angle_r	ankle_angle_r	hip_flexion_l	hip_adduction_l	hip_rotation_l	knee_angle_l	ankle_angle_l	lumbar_extension
0	-8.42442037	-2.75236456	-2.95611545	0	0.90461496	0	14.58807999	4.62041386	0	-22.4488767	31.27635863	18.04706374	-5.28499523	0	-27.84202275	31.12552294	-5.00000214
0.017	-8.47620774	-2.72701043	-3.00682652	-0.00041511	0.90460222	-0.00013293	14.78028439	4.61664629	0	-22.6010468	31.15130755	18.06918649	-5.27269981	0	-27.81722375	32.04877728	-5.00000214
0.033	-8.456296	-2.72036639	-2.99871592	-0.00064153	0.90477182	-0.00022145	14.79896671	4.61416599	0	-22.59546717	31.15123777	18.06614391	-5.28280172	0	-27.82174352	32.05612269	-5.00000214
0.05	-8.49410484	-2.76521469	-2.97362128	-0.0013115	0.9044534	-0.00018571	15.05300595	4.68630811	0	-22.91241097	31.18445177	18.38763427	-5.36377761	0	-28.31653474	32.73674654	-5.00000214
0.067	-8.51999319	-2.70523245	-2.9265322	-0.00173001	0.90464579	-0.00062606	15.15253894	4.60523185	0	-22.93510646	31.07590768	18.36438391	-5.30573656	0	-28.22921757	33.67020479	-5.00000214
0.083	-8.50221799	-2.69727546	-2.92654407	-0.00192503	0.9048867	-0.0007794	15.19295688	4.6445184	0	-22.92204736	31.07461217	18.33811549	-5.28192461	0	-28.23730928	33.6721233	-5.00000214
0.1	-8.50359664	-2.67104307	-3.0585213	-0.0021186	0.90493274	-0.00082236	15.31182626	4.63069431	0	-23.11100105	31.02876194	18.21546466	-5.26090235	0	-28.05607513	33.76524714	-5.00000214
0.117	-8.49674666	-2.67257638	-3.05789625	-0.00230758	0.90491745	-0.00090818	15.3204997	4.62343569	0	-23.10948434	31.0296869	18.21282001	-5.26479684	0	-28.05261845	33.76446672	-5.00000214
0.133	-8.5434693	-2.57431501	-3.12875706	-0.00289626	0.90491797	-0.00128036	15.60122041	4.49452021	0	-23.47881558	31.04976904	18.15874944	-5.1397682	0	-27.76958758	33.60019238	-5.00000214
0.15	-8.56171373	-2.56704631	-3.06505207	-0.00342406	0.90491067	-0.00154849	15.67550809	4.46740979	0	-23.50379787	31.04740011	18.19169853	-5.1105799	0	-27.69471308	33.60689249	-5.00000214
0.167	-8.60829535	-2.48947966	-3.12141051	-0.00398712	0.90484232	-0.00184313	15.90275788	4.36873056	0	-23.76652667	31.04297224	18.18447812	-5.00946307	0	-27.52190565	33.60462523	-5.00000214
0.183	-8.60119554	-2.49010751	-3.11718764	-0.00423702	0.90485795	-0.00191152	15.91204266	4.36605054	0	-23.76432804	31.04395006	18.18471161	-5.01209188	0	-27.51775379	33.60489194	-5.00000214
0.2	-8.75661908	-2.41950192	-3.06662573	-0.00571488	0.904618	-0.00227774	16.40372907	4.27430649	0	-24.21733245	31.12052043	18.45462372	-4.92163256	0	-27.4613958	33.50570169	-5.00000214
0.217	-8.74050953	-2.42185024	-3.06245054	-0.00615193	0.90469541	-0.00237379	16.41637011	4.26972621	0	-24.21108007	31.12016049	18.45614132	-4.92157174	0	-27.45327916	33.50571219	-5.00000214
0.233	-8.80583735	-2.35767591	-3.16342662	-0.00678334	0.90489798	-0.00256129	16.5259983	4.19266468	0	-24.16772862	30.953305	18.37399217	-4.85002855	0	-27.0848271	33.29915324	-5.00000214
0.25	-8.68982304	-2.30974194	-3.1003019	-0.00674445	0.90493906	-0.00281032	16.47822051	4.11485811	0	-24.33165813	30.98317384	18.22566454	-4.77372268	0	-27.04983482	33.24684663	-5.00000214
0.267	-8.60088568	-2.22274445	-3.04081201	-0.00671375	0.90497139	-0.00318957	16.53427192	3.98513834	0	-24.65154813	31.13542866	18.02008865	-4.64127033	0	-26.80950107	33.24192478	-5.00000214
0.283	-8.58848576	-2.19779879	-2.98949692	-0.00690092	0.90494493	-0.00340205	16.60585776	3.93814673	0	-24.79069771	31.1606432	17.94349793	-4.59558713	0	-26.63794064	33.2786367	-5.00000214
0.3	-8.59882475	-2.17896405	-2.99108316	-0.00716587	0.90495862	-0.00351875	16.66673766	3.91080049	0	-24.84450379	31.14525252	17.88014425	-4.56938184	0	-26.45521267	33.29767035	-5.00000214
0.317	-8.59064867	-2.18217494	-2.98749181	-0.0074209	0.904988	-0.00364031	16.67427219	3.90569257	0	-24.84357724	31.14537361	17.87819117	-4.57239863	0	-26.44849228	33.2983082	-5.00000214
0.333	-8.64092859	-2.1288989	-3.00506156	-0.00785323	0.90501722	-0.00392371	16.82485785	3.83422811	0	-24.97174442	31.15250756	17.80841087	-4.49922774	0	-26.12397023	33.25593473	-5.00000214
0.35	-8.67738979	-2.11784149	-2.97780801	-0.00848491	0.90500665	-0.00418818	16.90670345	3.80149217	0	-24.97170413	31.15545818	17.86823577	-4.4754933	0	-26.05898755	33.20189876	-5.00000214
0.367	-8.75921936	-2.12100535	-2.93859349	-0.00900541	0.90494423	-0.00443921	16.99274179	3.78302925	0	-24.89298013	31.15236326	17.9687119	-4.46643618	0	-25.99246636	33.17660935	-5.00000214
0.383	-8.81653141	-2.14140989	-2.86090805	-0.00913071	0.90488394	-0.00476213	17.04285535	3.7813861	0	-24.85709966	31.1359062	18.04663359	-4.45726365	0	-25.97668489	33.15071903	-5.00000214
0.4	-8.80823326	-2.14858639	-2.85768561	-0.00928771	0.90493741	-0.00496345	17.04564872	3.77862175	0	-24.85734267	31.13523208	18.04979872	-4.45490386	0	-25.97447411	33.14985334	-5.00000214
0.417	-8.76730071	-2.10269806	-2.81581294	-0.00953078	0.90500709	-0.0053839	17.05790565	3.69222654	0	-24.94259145	31.09965053	18.00160546	-4.37602488	0	-25.91149689	33.06690922	-5.00000214
0.433	-8.81138362	-2.10136454	-2.79571306	-0.01000783	0.90497249	-0.00563337	17.12771759	3.67395045	0	-24.91335357	31.08270535	18.03973732	-4.36332837	0	-25.8164335	33.04163877	-5.00000214
0.45	-8.87232041	-2.08988728	-2.82566396	-0.01065082	0.90494575	-0.0058364	17.2209533	3.64958888	0	-24.86464527	31.05369976	18.08286039	-4.3408812	0	-25.68363695	33.0333089	-5.00000214
0.467	-8.8595117	-2.09738454	-2.82633834	-0.01083946	0.9049529	-0.00601826	17.22483987	3.64501656	0	-24.86769535	31.05214449	18.08472174	-4.33783229	0	-25.68088065	33.03198012	-5.00000214
0.483	-8.78871138	-2.08910395	-2.763436	-0.01050773	0.90500082	-0.00636529	17.184515	3.60715591	0	-24.99371465	31.03535177	18.04277743	-4.30004889	0	-25.7639786	33.00721491	-5.00000214
0.5	-8.81293284	-1.99279064	-2.81401731	-0.01076508	0.90482353	-0.00682723	17.41947915	3.4740813	0	-25.37507662	31.11398132	18.13293764	-4.16251867	0	-25.87298895	33.02030487	-5.00000214
0.517	-8.80834283	-2.00114753	-2.81812863	-0.01082649	0.90483155	-0.00698306	17.41749167	3.47064399	0	-25.37664014	31.11322455	18.13378467	-4.1630512	0	-25.87163723	33.02060319	-5.00000214
0.533	-8.80316694	-2.00862593	-2.81709059	-0.01091676	0.90482133	-0.00717612	17.4219907	3.46500488	0	-25.37679444	31.11280251	18.12936191	-4.16486665	0	-25.87143008	33.02007757	-5.00000214
0.55	-8.78675185	-2.01592878	-2.81116214	-0.01110597	0.90486774	-0.00739686	17.43015277	3.45820543	0	-25.37891676	31.1124452	18.12698918	-4.16480296	0	-25.86998846	33.01931219	-5.00000214
0.567	-8.73033882	-1.96688306	-2.81350927	-0.01115118	0.90494158	-0.00774625	17.46205598	3.37974375	0	-25.55833529	31.11072272	18.04365934	-4.08480672	0	-25.82678155	33.04938529	-5.00000214
0.583	-8.73091214	-1.97362064	-2.81345472	-0.01119363	0.90498091	-0.00790842	17.46259269	3.37498334	0	-25.55971993	31.11098069	18.04192589	-4.0874674	0	-25.82633794	33.05043144	-5.00000214
0.6	-8.72765847	-1.97911919	-2.81408364	-0.01125833	0.90498902	-0.00803595	17.46317376	3.37290218	0	-25.56057331	31.11142514	18.04235676	-4.08814905	0	-25.82484497	33.05117684	-5.00000214
